<?xml version="1.0" encoding="utf-8"?>
<!-- created with bpmn-js / http://bpmn.io -->
<!DOCTYPE svg PUBLIC "-//W3C//DTD SVG 1.1//EN" "http://www.w3.org/Graphics/SVG/1.1/DTD/svg11.dtd">
<svg id="deineMutter" xmlns="http://www.w3.org/2000/svg" xmlns:xlink="http://www.w3.org/1999/xlink" width="585" height="318" viewBox="171 84 585 318" version="1.1"><defs><marker id="sequenceflow-end-white-black-c5dk4w6vsj4eg09ixjrx2yoa3" viewBox="0 0 20 20" refX="11" refY="10" markerWidth="10" markerHeight="10" orient="auto"><path d="M 1 5 L 11 10 L 1 15 Z" style="fill: black; stroke-width: 1px; stroke-linecap: round; stroke-dasharray: 10000, 1; stroke: white; fill: white"></path></marker><marker id="association-end-white-black-c5dk4w6vsj4eg09ixjrx2yoa3" viewBox="0 0 20 20" refX="12" refY="10" markerWidth="10" markerHeight="10" orient="auto"><path d="M 1 5 L 11 10 L 1 15" style="fill: none; stroke-width: 1.5px; stroke-linecap: round; stroke-dasharray: 10000, 1; stroke: white; fill: white"></path></marker></defs><g class="djs-group"><g data-element-id="Flow_1cmb5qj" class="djs-element djs-connection" style="display: block;"><g class="djs-visual"><path d="m  215,177L272,177 " style="fill: none; stroke-width: 2px; stroke: white; stroke-linejoin: round; marker-end: url('#sequenceflow-end-white-black-c5dk4w6vsj4eg09ixjrx2yoa3');"></path></g><polyline points="215,177 272,177 " class="djs-hit djs-hit-stroke" style="fill: none; stroke-opacity: 0; stroke: white; stroke-width: 15px;"></polyline><rect x="209" y="171" width="69" height="12" class="djs-outline" style="fill: none;"></rect></g></g><g class="djs-group"><g data-element-id="Flow_1lb4jmn" class="djs-element djs-connection" style="display: block;"><g class="djs-visual"><path d="m  308,177L370,177 " style="fill: none;stroke-width: 2px;stroke: white;stroke-linejoin: round;marker-end: url('#sequenceflow-end-white-black-c5dk4w6vsj4eg09ixjrx2yoa3');"></path></g><polyline points="308,177 370,177 " class="djs-hit djs-hit-stroke" style="fill: none; stroke-opacity: 0; stroke: white; stroke-width: 15px;"></polyline><rect x="302" y="171" width="74" height="12" class="djs-outline" style="fill: none;"></rect></g></g><g class="djs-group"><g data-element-id="Flow_0tvnfbi" class="djs-element djs-connection" style="display: block;"><g class="djs-visual"><path d="m  470,177L535,177 " style="fill: none;stroke-width: 2px;stroke: white;stroke-linejoin: round;marker-end: url('#sequenceflow-end-white-black-c5dk4w6vsj4eg09ixjrx2yoa3');"></path></g><polyline points="470,177 535,177 " class="djs-hit djs-hit-stroke" style="fill: none; stroke-opacity: 0; stroke: white; stroke-width: 15px;"></polyline><rect x="464" y="171" width="77" height="12" class="djs-outline" style="fill: none;"></rect></g></g><g class="djs-group"><g data-element-id="Flow_1xfi1l8" class="djs-element djs-connection" style="display: block;"><g class="djs-visual"><path d="m  585,177L650,177 " style="fill: none;stroke-width: 2px;stroke: white;stroke-linejoin: round;marker-end: url('#sequenceflow-end-white-black-c5dk4w6vsj4eg09ixjrx2yoa3');"></path></g><polyline points="585,177 650,177 " class="djs-hit djs-hit-stroke" style="fill: none; stroke-opacity: 0; stroke: white; stroke-width: 15px;"></polyline><rect x="579" y="171" width="77" height="12" class="djs-outline" style="fill: none;"></rect></g></g><g class="djs-group"><g data-element-id="Flow_1apkjad" class="djs-element djs-connection" style="display: block;"><g class="djs-visual"><path d="m  700,137L700,90 L290,90 L290,159 " style="fill: none;stroke-width: 2px;stroke: white;stroke-linejoin: round;marker-end: url('#sequenceflow-end-white-black-c5dk4w6vsj4eg09ixjrx2yoa3');"></path></g><polyline points="700,137 700,90 290,90 290,159 " class="djs-hit djs-hit-stroke" style="fill: none; stroke-opacity: 0; stroke: white; stroke-width: 15px;"></polyline><rect x="284" y="84" width="422" height="81" class="djs-outline" style="fill: none;"></rect></g></g><g class="djs-group"><g data-element-id="Flow_014v3rp" class="djs-element djs-connection" style="display: block;"><g class="djs-visual"><path d="m  560,202L560,270 L632,270 " style="fill: none;stroke-width: 2px;stroke: white;stroke-linejoin: round;marker-end: url('#sequenceflow-end-white-black-c5dk4w6vsj4eg09ixjrx2yoa3');"></path></g><polyline points="560,202 560,270 632,270 " class="djs-hit djs-hit-stroke" style="fill: none; stroke-opacity: 0; stroke: white; stroke-width: 15px;"></polyline><rect x="554" y="196" width="84" height="80" class="djs-outline" style="fill: none;"></rect></g></g><g class="djs-group"><g data-element-id="StartEvent_1" transform="matrix(1 0 0 1 179 159)" class="djs-element djs-shape" style="display: block;"><g class="djs-visual"><circle cx="18" cy="18" r="18" style="stroke: white; stroke-width: 2px; fill: none; fill-opacity: 0.95;"></circle><path d="m 8.459999999999999,11.34 l 0,12.6 l 18.900000000000002,0 l 0,-12.6 z l 9.450000000000001,5.4 l 9.450000000000001,-5.4" style="fill: none; stroke-width: 1px; stroke: white;"></path></g><rect x="0" y="0" width="36" height="36" class="djs-hit djs-hit-all" style="fill: none; stroke-opacity: 0; stroke: white; stroke-width: 15px;"></rect><rect x="-6" y="-6" width="48" height="48" class="djs-outline" style="fill: none;"></rect></g></g><g class="djs-group"><g data-element-id="Event_1q0b7ht_label" transform="matrix(1 0 0 1 177 202)" class="djs-element djs-shape" style="display: block;"><g class="djs-visual"><text lineHeight="1.2" class="djs-label" style="font-family: Arial, sans-serif; font-size: 11px; font-weight: normal; fill: white;"><tspan x="0" y="9.899999999999999">Working</tspan><tspan x="6.0078125" y="23.099999999999998">group</tspan><tspan x="5.703125" y="36.3">active</tspan></text></g><rect x="0" y="0" width="41" height="40" class="djs-hit djs-hit-all" style="fill: none; stroke-opacity: 0; stroke: white; stroke-width: 15px;"></rect><rect x="-6" y="-6" width="53" height="52" class="djs-outline" style="fill: none;"></rect></g></g><g class="djs-group"><g data-element-id="Event_09g1e1d" transform="matrix(1 0 0 1 272 159)" class="djs-element djs-shape" style="display: block;"><g class="djs-visual"><circle cx="18" cy="18" r="18" style="stroke: white;stroke-width: 1px;fill: none;fill-opacity: 0.95;"></circle><circle cx="18" cy="18" r="15" style="stroke: white;stroke-width: 1px;fill: none;"></circle><circle cx="18" cy="18" r="11" style="stroke: white;stroke-width: 2px;fill: none;"></circle><path d="M 18,18 l 2.25,-7.5 m -2.25,7.5 l 5.25,1.5 " style="fill: none;stroke-width: 2px;stroke: white;stroke-linecap: square;"></path><path d="M 18,18 m 0,7.5 l -0,2.25 " transform="rotate(0,18,18)" style="fill: none;stroke-width: 1px;stroke: white;stroke-linecap: square;"></path><path d="M 18,18 m 0,7.5 l -0,2.25 " transform="rotate(30,18,18)" style="fill: none;stroke-width: 1px;stroke: white;stroke-linecap: square;"></path><path d="M 18,18 m 0,7.5 l -0,2.25 " transform="rotate(60,18,18)" style="fill: none;stroke-width: 1px;stroke: white;stroke-linecap: square;"></path><path d="M 18,18 m 0,7.5 l -0,2.25 " transform="rotate(90,18,18)" style="fill: none;stroke-width: 1px;stroke: white;stroke-linecap: square;"></path><path d="M 18,18 m 0,7.5 l -0,2.25 " transform="rotate(120,18,18)" style="fill: none;stroke-width: 1px;stroke: white;stroke-linecap: square;"></path><path d="M 18,18 m 0,7.5 l -0,2.25 " transform="rotate(150,18,18)" style="fill: none;stroke-width: 1px;stroke: white;stroke-linecap: square;"></path><path d="M 18,18 m 0,7.5 l -0,2.25 " transform="rotate(180,18,18)" style="fill: none;stroke-width: 1px;stroke: white;stroke-linecap: square;"></path><path d="M 18,18 m 0,7.5 l -0,2.25 " transform="rotate(210,18,18)" style="fill: none;stroke-width: 1px;stroke: white;stroke-linecap: square;"></path><path d="M 18,18 m 0,7.5 l -0,2.25 " transform="rotate(240,18,18)" style="fill: none;stroke-width: 1px;stroke: white;stroke-linecap: square;"></path><path d="M 18,18 m 0,7.5 l -0,2.25 " transform="rotate(270,18,18)" style="fill: none;stroke-width: 1px;stroke: white;stroke-linecap: square;"></path><path d="M 18,18 m 0,7.5 l -0,2.25 " transform="rotate(300,18,18)" style="fill: none;stroke-width: 1px;stroke: white;stroke-linecap: square;"></path><path d="M 18,18 m 0,7.5 l -0,2.25 " transform="rotate(330,18,18)" style="fill: none;stroke-width: 1px;stroke: white;stroke-linecap: square;"></path></g><rect x="0" y="0" width="36" height="36" class="djs-hit djs-hit-all" style="fill: none; stroke-opacity: 0; stroke: white; stroke-width: 15px;"></rect><rect x="-6" y="-6" width="48" height="48" class="djs-outline" style="fill: none;"></rect></g></g><g class="djs-group"><g data-element-id="Event_09g1e1d_label" transform="matrix(1 0 0 1 260 202)" class="djs-element djs-shape" style="display: block;"><g class="djs-visual"><text lineHeight="1.2" class="djs-label" style="font-family: Arial, sans-serif; font-size: 11px; font-weight: normal; fill: white;"><tspan x="14.46875" y="9.899999999999999">Friday</tspan><tspan x="10.796875" y="23.099999999999998">at 6 PM</tspan><tspan x="0" y="36.3">Pacific Time</tspan></text></g><rect x="0" y="0" width="60" height="40" class="djs-hit djs-hit-all" style="fill: none; stroke-opacity: 0; stroke: white; stroke-width: 15px;"></rect><rect x="-6" y="-6" width="72" height="52" class="djs-outline" style="fill: none;"></rect></g></g><g class="djs-group"><g data-element-id="Activity_0im87db" transform="matrix(1 0 0 1 370 137)" class="djs-element djs-shape" style="display: block;"><g class="djs-visual"><rect x="0" y="0" width="100" height="80" rx="10" ry="10" style="stroke: white; stroke-width: 2px; fill: none; fill-opacity: 0.95;"></rect><text lineHeight="1.2" class="djs-label" style="font-family: Arial, sans-serif; font-size: 10px; font-weight: normal; fill: white"><tspan x="8.4375" y="36.4">Check status of </tspan><tspan x="12.3125" y="50.8">working group</tspan></text></g><rect x="0" y="0" width="100" height="80" class="djs-hit djs-hit-all" style="fill: none; stroke-opacity: 0; stroke: white; stroke-width: 15px;"></rect><rect x="-6" y="-6" width="112" height="92" class="djs-outline" style="fill: none;"></rect></g></g><g class="djs-group"><g data-element-id="Gateway_1t3p6ds" transform="matrix(1 0 0 1 535 152)" class="djs-element djs-shape" style="display: block;"><g class="djs-visual"><polygon points="25,0 50,25 25,50 0,25" style="stroke: white; stroke-width: 2px; fill: none; fill-opacity: 0.95;"></polygon><path d="m 16,15 7.42857142857143,9.714285714285715 -7.42857142857143,9.714285714285715 3.428571428571429,0 5.714285714285715,-7.464228571428572 5.714285714285715,7.464228571428572 3.428571428571429,0 -7.42857142857143,-9.714285714285715 7.42857142857143,-9.714285714285715 -3.428571428571429,0 -5.714285714285715,7.464228571428572 -5.714285714285715,-7.464228571428572 -3.428571428571429,0 z" style="fill: white; stroke-width: 1px; stroke: white;"></path></g><rect x="0" y="0" width="50" height="50" class="djs-hit djs-hit-all" style="fill: none; stroke-opacity: 0; stroke: white; stroke-width: 15px;"></rect><rect x="-6" y="-6" width="62" height="62" class="djs-outline" style="fill: none;"></rect></g></g><g class="djs-group"><g data-element-id="Activity_1smzjlt" transform="matrix(1 0 0 1 650 137)" class="djs-element djs-shape" style="display: block;"><g class="djs-visual"><rect x="0" y="0" width="100" height="80" rx="10" ry="10" style="stroke: white; stroke-width: 2px; fill: none; fill-opacity: 0.95;"></rect><text lineHeight="1.2" class="djs-label" style="font-family: Arial, sans-serif; font-size: 12px; font-weight: normal; fill: white;"><tspan x="15.640625" y="36.4">Send current </tspan><tspan x="26.9921875" y="50.8">issue list</tspan></text><path d="m 5.984999999999999,4.997999999999999 l 0,14 l 21,0 l 0,-14 z l 10.5,6 l 10.5,-6" style="fill: none; stroke-width: 1px; stroke: white;"></path></g><rect x="0" y="0" width="100" height="80" class="djs-hit djs-hit-all" style="fill: none; stroke-opacity: 0; stroke: white; stroke-width: 15px;"></rect><rect x="-6" y="-6" width="112" height="92" class="djs-outline" style="fill: none;"></rect></g></g><g class="djs-group"><g data-element-id="Gateway_1t3p6ds_label" transform="matrix(1 0 0 1 524 114.5)" class="djs-element djs-shape" style="display: block;"><g class="djs-visual"><text lineHeight="1.2" class="djs-label" style="font-family: Arial, sans-serif; font-size: 11px; font-weight: normal; fill: white;"><tspan x="0" y="9.899999999999999">Working group</tspan><tspan x="7.2421875" y="23.099999999999998">still active ?</tspan></text></g><rect x="0" y="0" width="72" height="27" class="djs-hit djs-hit-all" style="fill: none; stroke-opacity: 0; stroke: white; stroke-width: 15px;"></rect><rect x="-6" y="-6" width="84" height="39" class="djs-outline" style="fill: none;"></rect></g></g><g class="djs-group"><g data-element-id="Flow_1xfi1l8_label" transform="matrix(1 0 0 1 609 159)" class="djs-element djs-shape" style="display: block;"><g class="djs-visual"><text lineHeight="1.2" class="djs-label" style="font-family: Arial, sans-serif; font-size: 11px; font-weight: normal; fill: white;"><tspan x="0" y="9.899999999999999">Yes</tspan></text></g><rect x="0" y="0" width="18" height="14" class="djs-hit djs-hit-all" style="fill: none; stroke-opacity: 0; stroke: white; stroke-width: 15px;"></rect><rect x="-6" y="-6" width="30" height="26" class="djs-outline" style="fill: none;"></rect></g></g><g class="djs-group"><g data-element-id="Event_0fvplft" transform="matrix(1 0 0 1 632 252)" class="djs-element djs-shape" style="display: block;"><g class="djs-visual"><circle cx="18" cy="18" r="18" style="stroke: white; stroke-width: 4px; fill: none; fill-opacity: 0.95;"></circle></g><rect x="0" y="0" width="36" height="36" class="djs-hit djs-hit-all" style="fill: none; stroke-opacity: 0; stroke: white; stroke-width: 15px;"></rect><rect x="-6" y="-6" width="48" height="48" class="djs-outline" style="fill: none;"></rect></g></g><g class="djs-group"><g data-element-id="DataObjectReference_0hunn8x" transform="matrix(1 0 0 1 632 325)" class="djs-element djs-shape" style="display: block;"><g class="djs-visual"><path d="m 0,0 28.23529411764706,0 7.058823529411765,8.196721311475411 0,40.98360655737705 -35.294117647058826,0 0,-49.18032786885246 28.23529411764706,0 0,8.196721311475411 7.058823529411765,0" style="fill: none; stroke-width: 2px; stroke: white; fill-opacity: 0.95;"></path></g><rect x="0" y="0" width="36" height="50" class="djs-hit djs-hit-all" style="fill: none; stroke-opacity: 0; stroke: white; stroke-width: 15px;"></rect><rect x="-6" y="-6" width="48" height="62" class="djs-outline" style="fill: none;"></rect></g></g><g class="djs-group"><g data-element-id="DataInputAssociation_0dnrhhz" class="djs-element djs-connection" style="display: block;"><g class="djs-visual"><polyline points="668,350 700,350 700,217 " style="fill: none; stroke: white; stroke-width: 2px; stroke-dasharray: 0.5, 5; stroke-linecap: round; stroke-linejoin: round; marker-end: url('#association-end-white-black-c5dk4w6vsj4eg09ixjrx2yoa3');"></polyline></g><polyline points="668,350 700,350 700,217 " class="djs-hit djs-hit-stroke" style="fill: none; stroke-opacity: 0; stroke: white; stroke-width: 15px;"></polyline><rect x="662" y="211" width="44" height="145" class="djs-outline" style="fill: none;"></rect></g></g><g class="djs-group"><g data-element-id="Flow_014v3rp_label" transform="matrix(1 0 0 1 568 233)" class="djs-element djs-shape" style="display: block;"><g class="djs-visual"><text lineHeight="1.2" class="djs-label" style="font-family: Arial, sans-serif; font-size: 11px; font-weight: normal; fill: white;"><tspan x="0" y="9.899999999999999">No</tspan></text></g><rect x="0" y="0" width="15" height="14" class="djs-hit djs-hit-all" style="fill: none; stroke-opacity: 0; stroke: white; stroke-width: 15px;"></rect><rect x="-6" y="-6" width="27" height="26" class="djs-outline" style="fill: none;"></rect></g></g><g class="djs-group"><g data-element-id="DataObjectReference_0hunn8x_label" transform="matrix(1 0 0 1 629 382)" class="djs-element djs-shape" style="display: block;"><g class="djs-visual"><text lineHeight="1.2" class="djs-label" style="font-family: Arial, sans-serif; font-size: 11px; font-weight: normal; fill: white;"><tspan x="0" y="9.899999999999999">Issue list</tspan></text></g><rect x="0" y="0" width="43" height="14" class="djs-hit djs-hit-all" style="fill: none; stroke-opacity: 0; stroke: white; stroke-width: 15px;"></rect><rect x="-6" y="-6" width="55" height="26" class="djs-outline" style="fill: none;"></rect></g></g></svg>